<svg xmlns="http://www.w3.org/2000/svg" id="stormboi" viewBox="0 0 513.7 570.5">
  <path id="lightning" fill="#fbb040" d="M395.8 268S273.2 390.7 279.2 414l61.1-6.2S222 519.3 224.3 588.6c0 0 91.6-94.5 124.6-109.9l137.7-94.6c1.6-6.2-78-22.5-78-22.5L514 284.1s-91.7-26.2-118.3-16z" transform="translate(-125.4 -18.1)"/>
  <path id="cloud" fill="#bcbec0" d="M610.1 134.6a105.4 105.4 0 00-190.5-70.1 95.5 95.5 0 00-59-43.3 94 94 0 00-83 17.3 86.5 86.5 0 00-33.7-17C194 8.8 142.4 42.5 128.7 96.7a103 103 0 0023.8 96.5c-.5 1.5-1 3-1.3 4.6a106.7 106.7 0 00175.5 104.8 101.1 101.1 0 0059 40.6c45 11.4 90-8.3 109.1-45A86.6 86.6 0 00520 309c50.1 12.7 102-21.2 115.7-75.7 9.5-37.4-1.5-74.9-25.6-98.7z" transform="translate(-125.4 -18.1)"/>
  <g id="raindrops" fill="#00aeef">
    <path d="M228 419.2h-.5c-2.3 20.3-23.5 35-23.5 47.4a23.6 23.6 0 1047.3 0c0-12.4-21-27-23.4-47.4zM555.4 317h-.3c-1.9 16.2-18.7 27.9-18.7 37.7a18.8 18.8 0 0037.6 0c0-9.9-16.8-21.6-18.6-37.7zM498.8 329.4h-.2c-1 9-10.4 15.6-10.4 21a10.5 10.5 0 0021 0c0-5.4-9.4-12-10.4-21zM488.5 407.9h-.6c-3.3 29.1-33.6 50.2-33.6 67.9a33.9 33.9 0 0067.8 0c0-17.7-30.3-38.8-33.6-68zM529 386.9h-.4c-1.6 14.6-16.7 25.1-16.7 34a17 17 0 0033.8 0c0-8.9-15.1-19.4-16.8-34zM190.6 400.6h-.3c-1.2 10.6-12.2 18.3-12.2 24.8a12.4 12.4 0 1024.7 0c0-6.5-11-14.2-12.2-24.8zM210.2 334.5h-.3c-1.7 15.1-17.5 26.1-17.5 35.3a17.6 17.6 0 1035.3 0c0-9.2-15.8-20.2-17.5-35.3z" transform="translate(-125.4 -18.1)"/>
  </g>
  <g id="mad">
    <circle id="mouth" cx="367.3" cy="236.9" r="23.9" fill="#f23b6f" transform="rotate(-45 282.8 379.2)"/>
    <g id="lefteye">
      <circle cx="283.9" cy="177.4" r="41.9" fill="#261017" transform="rotate(-45 199.3 319.7)"/>
      <circle cx="283.9" cy="173.9" r="32.6" transform="rotate(-75.9 209.6 245.3)"/>
      <path fill="#3d1f2a" d="M255 195.5a35 35 0 0059.8 1c2-3.1 3.4-7 1.7-10.3s-5.6-4.3-9-3.6-6.4 2.7-9.2 4.7-5.8 4-9.2 4.8c-10 2.2-19-7.8-29.1-7.6-2.3 0-4.7.7-6 2.5-1.7 2.5-.6 5.9 1 8.5z" transform="translate(-125.4 -18.1)"/>
      <circle cx="275.5" cy="176.2" r="15.7" fill="#fff" transform="rotate(-45 191 318.5)"/>
      <path fill="#fff" d="M302 159.3a4.7 4.7 0 11-4.8-4.8 4.7 4.7 0 014.7 4.8z" transform="translate(-125.4 -18.1)"/>
      <circle cx="174.5" cy="179.8" r="6.7" fill="#fff"/>
      <path fill="#fff" d="M283.9 204a2.3 2.3 0 11-2.3-2.3 2.3 2.3 0 012.3 2.3z" transform="translate(-125.4 -18.1)"/>
      <path fill="#261017" d="M337.8 149.3l-112.5-34.1c-5-1.6-7.2 6.3-2.2 7.8l112.5 34.1c5 1.6 7.2-6.3 2.2-7.8z" transform="translate(-125.4 -18.1)"/>
    </g>
    <g id="righteye">
      <circle cx="462" cy="177.4" r="41.9" fill="#261017" transform="rotate(-9.3 288.5 935.7)"/>
      <circle cx="462" cy="173.9" r="32.6" transform="rotate(-67 385.7 259.6)"/>
      <path fill="#3d1f2a" d="M491 195.5a35 35 0 01-59.8 1c-2-3.1-3.4-7-1.7-10.3s5.6-4.3 9-3.6 6.3 2.7 9.2 4.7 5.7 4 9.1 4.8c10 2.2 19-7.8 29.2-7.6 2.3 0 4.7.7 6 2.5 1.7 2.5.5 5.9-1 8.5z" transform="translate(-125.4 -18.1)"/>
      <circle cx="470.5" cy="176.2" r="15.7" fill="#fff" transform="rotate(-16.2 344.3 606.5)"/>
      <path fill="#fff" d="M444 159.3a4.7 4.7 0 104.7-4.8 4.7 4.7 0 00-4.7 4.8z" transform="translate(-125.4 -18.1)"/>
      <circle cx="320.7" cy="179.8" r="6.7" fill="#fff"/>
      <path fill="#fff" d="M462 204a2.3 2.3 0 102.3-2.3 2.3 2.3 0 00-2.3 2.3z" transform="translate(-125.4 -18.1)"/>
      <path fill="#261017" d="M408.1 149.3l112.5-34.1c5-1.6 7.2 6.3 2.2 7.8l-112.5 34.1c-5 1.6-7.2-6.3-2.2-7.8z" transform="translate(-125.4 -18.1)"/>
    </g>
  </g>
  <g id="happy">
    <path fill="#f23b6f" d="M341 218.8c-7-2.7-15 1.4-14.3 9.3 1.5 15.2 18 31.9 40.8 31.8 22.7 0 39.3-16.6 40.7-31.8.8-8-6.9-10.4-14.3-9.3a219 219 0 01-52.8 0z" transform="translate(-125.4 -18.1)"/>
    <g fill="#261017">
      <path d="M507.6 147c-5.9 7.4-14 8.7-22.7 10a6.6 6.6 0 011 2.7 32 32 0 014.2 4.6c9-1.6 17.2-4 23.2-11.7 3.2-4-2.5-9.8-5.7-5.7zM508.1 165.8a23 23 0 01-14 4.8 74 74 0 013.6 8 29.8 29.8 0 0014.5-5.8c4.2-3.1.1-10.2-4-7z" transform="translate(-125.4 -18.1)"/>
      <path d="M502.8 176.8a46.7 46.7 0 00-44.2-37 46.3 46.3 0 00-28.5 10c-7.6 5.8-16.7 16.6-15.4 26.9.6 5.1 8.8 5.2 8.1 0-1-8.5 7.4-17.1 13.7-21.6A39 39 0 01460 148c17.2.3 31.7 14.7 35 31 1 5.1 8.9 3 7.8-2.2z" transform="translate(-125.4 -18.1)"/>
    </g>
    <g fill="#261017">
      <path d="M224.9 147c5.8 7.4 14 8.7 22.6 10a6.6 6.6 0 00-.9 2.7 32 32 0 00-4.3 4.6c-9-1.6-17.1-4-23.2-11.7-3.2-4 2.6-9.8 5.8-5.7zM224.3 165.8a23 23 0 0014 4.8 74 74 0 00-3.5 8 29.8 29.8 0 01-14.6-5.8c-4.1-3.1 0-10.2 4.1-7z" transform="translate(-125.4 -18.1)"/>
      <path d="M229.6 176.8a46.7 46.7 0 0144.3-37 46.3 46.3 0 0128.4 10c7.6 5.8 16.8 16.6 15.5 26.9-.7 5.1-8.8 5.2-8.2 0 1.1-8.5-7.4-17.1-13.7-21.6a39 39 0 00-23.4-7.1c-17.2.3-31.7 14.7-35 31-1 5.1-8.9 3-7.9-2.2z" transform="translate(-125.4 -18.1)"/>
    </g>
  </g>
</svg>
